<?xml version="1.0" encoding="UTF-8"?>
<svg width="24px" height="24px" viewBox="0 0 24 24" version="1.1" xmlns="http://www.w3.org/2000/svg" xmlns:xlink="http://www.w3.org/1999/xlink">
    <title>ic_editor_music</title>
    <g id="ic_editor_music" stroke="none" stroke-width="1" fill="none" fill-rule="evenodd">
        <path d="M21,4.08984375 C21,3.48867188 20.5113281,3 19.9101562,3 C19.8011719,3 19.6921875,3.01757812 19.5902344,3.04921875 L8.65664062,6.41367188 C8.30507813,6.52265625 8.0625,6.84960938 8.0625,7.21875 L8.0625,11.4375 L8.0625,15.7511719 C7.56679688,15.5121094 6.99023438,15.375 6.375,15.375 C4.51171875,15.375 3,16.6335938 3,18.1875 C3,19.7414063 4.51171875,21 6.375,21 C8.23828125,21 9.75,19.7414063 9.75,18.1875 L9.75,12.1476562 L19.3125,9.20507812 L19.3125,13.5011719 C18.8167969,13.2621094 18.2402344,13.125 17.625,13.125 C15.7617188,13.125 14.25,14.3835938 14.25,15.9375 C14.25,17.4914062 15.7617188,18.75 17.625,18.75 C19.4882812,18.75 21,17.4914062 21,15.9375 L21,8.08359375 C21,8.06953125 21,8.05898438 21,8.04492188 L21,4.08984375 Z M19.3125,15.9375 C19.3125,16.2820313 18.8589844,17.0625 17.625,17.0625 C16.3910156,17.0625 15.9375,16.2820313 15.9375,15.9375 C15.9375,15.5929687 16.3910156,14.8125 17.625,14.8125 C18.8589844,14.8125 19.3125,15.5929687 19.3125,15.9375 Z M8.0625,18.1875 C8.0625,18.5320313 7.60898438,19.3125 6.375,19.3125 C5.14101562,19.3125 4.6875,18.5320313 4.6875,18.1875 C4.6875,17.8429687 5.14101562,17.0625 6.375,17.0625 C7.60898438,17.0625 8.0625,17.8429687 8.0625,18.1875 Z M19.3125,7.44023437 L9.75,10.3828125 L9.75,7.84101562 L19.3125,4.8984375 L19.3125,7.43671875 L19.3125,7.44023437 Z" id="形状" fill="#FCB334" fill-rule="nonzero"></path>
    </g>
</svg>