<?xml version="1.0" encoding="UTF-8"?>
<svg width="24px" height="24px" viewBox="0 0 24 24" version="1.1" xmlns="http://www.w3.org/2000/svg" xmlns:xlink="http://www.w3.org/1999/xlink">
    <title>ic_editor_certificate</title>
    <g id="ic_editor_certificate" stroke="none" stroke-width="1" fill="none" fill-rule="evenodd">
        <path d="M9.28310586,7.29655007 C9.67690099,7.06800825 9.96169925,6.69179326 10.0742121,6.24877374 L10.2605616,5.5139239 L10.7879658,6.05890823 C11.1044083,6.38589883 11.5403958,6.56873228 11.9974794,6.56873228 C12.4545631,6.56873228 12.8905505,6.38589883 13.206993,6.05890823 L13.7343972,5.5139239 L13.9207467,6.24877374 C14.0332596,6.69179326 14.3180579,7.06800825 14.711853,7.29655007 C15.1056481,7.52509188 15.5767959,7.58134833 16.0127834,7.45828735 L16.7441172,7.2508417 L16.5366715,7.98217552 C16.4136105,8.42167901 16.469867,8.88931073 16.6984088,9.28310586 C16.9269506,9.67690099 17.3031656,9.96169925 17.7461851,10.0742121 L18.481035,10.2605616 L17.9360506,10.7879658 C17.60906,11.1044083 17.4262266,11.5403958 17.4262266,11.9974794 C17.4262266,12.4545631 17.60906,12.8905505 17.9360506,13.206993 L18.481035,13.7343972 L17.7461851,13.9207467 C17.3031656,14.0332596 16.9269506,14.3180579 16.6984088,14.711853 C16.469867,15.1056481 16.4136105,15.5767959 16.5366715,16.0127834 L16.7441172,16.7441172 L16.0127834,16.5366715 C15.5732799,16.4136105 15.1056481,16.469867 14.711853,16.6984088 C14.3180579,16.9269506 14.0332596,17.3031656 13.9207467,17.7461851 L13.7343972,18.481035 L13.206993,17.9360506 C12.8905505,17.60906 12.4545631,17.4262266 11.9974794,17.4262266 C11.5403958,17.4262266 11.1044083,17.60906 10.7879658,17.9360506 L10.2605616,18.481035 L10.0742121,17.7461851 C9.96169925,17.3031656 9.67690099,16.9269506 9.28310586,16.6984088 C8.88931073,16.469867 8.41816298,16.4136105 7.98217552,16.5366715 L7.2508417,16.7441172 L7.45828735,16.0127834 C7.58134833,15.5732799 7.52509188,15.1056481 7.29655007,14.711853 C7.06800825,14.3180579 6.69179326,14.0332596 6.24877374,13.9207467 L5.5139239,13.7343972 L6.05890823,13.206993 C6.38589883,12.8905505 6.56873228,12.4545631 6.56873228,11.9974794 C6.56873228,11.5403958 6.38589883,11.1044083 6.05890823,10.7879658 L5.5139239,10.2605616 L6.24877374,10.0742121 C6.69179326,9.96169925 7.06800825,9.67690099 7.29655007,9.28310586 C7.52509188,8.88931073 7.58134833,8.41816298 7.45828735,7.98217552 L7.2508417,7.2508417 L7.98217552,7.45828735 C8.42167901,7.58134833 8.88931073,7.52509188 9.28662189,7.29655007 L9.28310586,7.29655007 Z M10.8231261,3.67152525 L10.4187829,3.25663395 C10.2078212,3.03512419 9.89137869,2.95073952 9.59603235,3.02809214 C9.300686,3.10544475 9.07214418,3.34101862 8.99479157,3.63636497 L8.85415045,4.19541341 L8.43925915,5.83388244 L6.81485424,5.37328278 L6.25932182,5.21857755 C5.96397547,5.13419288 5.64753296,5.21857755 5.43305525,5.43305525 C5.21857755,5.64753296 5.13419288,5.96397547 5.21857755,6.25932182 L5.37679881,6.81485424 L5.83739847,8.43925915 L4.19892944,8.85415045 L3.639881,8.99479157 C3.34453465,9.06862815 3.11247681,9.300686 3.03160816,9.59603235 C2.95073952,9.89137869 3.03512419,10.2078212 3.25663395,10.4187829 L3.67152525,10.8231261 L4.88103886,12.0009955 L3.67152525,13.1788648 L3.25663395,13.583208 C3.03512419,13.7941697 2.95073952,14.1106122 3.02809214,14.4059586 C3.10544475,14.7013049 3.34101862,14.9298467 3.63636497,15.0071994 L4.19541341,15.1478405 L5.83036641,15.5627318 L5.37328278,17.1871367 L5.21506152,17.7426691 C5.13067685,18.0380155 5.21506152,18.354458 5.42953922,18.5689357 C5.64401693,18.7834134 5.96045945,18.867798 6.25580579,18.7834134 L6.81133821,18.6251921 L8.43574312,18.1645925 L8.85063442,19.7995455 L8.99127554,20.3585939 C9.06511212,20.6539402 9.29716997,20.8859981 9.59251632,20.9668667 C9.88786267,21.0477354 10.2007892,20.9598347 10.4152669,20.7418409 L10.8231261,20.3339817 L12.0009955,19.1209521 L13.1788648,20.3339817 L13.583208,20.745357 C13.7976857,20.9633507 14.1106122,21.0512514 14.4059586,20.9703828 C14.7013049,20.8895141 14.9298467,20.6574563 15.0071994,20.3621099 L15.1478405,19.8030615 L15.5627318,18.1681085 L17.1871367,18.6287081 L17.7426691,18.7869294 C18.0380155,18.8713141 18.354458,18.7869294 18.5689357,18.5724517 C18.7834134,18.357974 18.867798,18.0415315 18.7834134,17.7461851 L18.6251921,17.1906527 L18.1645925,15.5662478 L19.7995455,15.1513565 L20.3585939,15.0107154 C20.6539402,14.9368788 20.8859981,14.704821 20.9668667,14.4094746 C21.0477354,14.1141283 20.9598347,13.7976857 20.7418409,13.5867241 L20.3339817,13.1788648 L19.1209521,12.0009955 L20.3339817,10.8231261 L20.745357,10.4187829 C20.9633507,10.2043052 21.0512514,9.89137869 20.9703828,9.59603235 C20.8895141,9.300686 20.6574563,9.07214418 20.3621099,8.99479157 L19.8030615,8.85415045 L18.1681085,8.43925915 L18.6287081,6.81485424 L18.7869294,6.25932182 C18.8713141,5.96397547 18.7869294,5.64753296 18.5724517,5.43305525 C18.357974,5.21857755 18.0415315,5.13419288 17.7461851,5.21857755 L17.1906527,5.37679881 L15.5627318,5.83388244 L15.1478405,4.19892944 L15.0071994,3.639881 C14.9333628,3.34453465 14.7013049,3.11247681 14.4059586,3.03160816 C14.1106122,2.95073952 13.7941697,3.03512419 13.583208,3.25663395 L13.1788648,3.67152525 L12.0009955,4.88103886 L10.8231261,3.67152525 Z" id="形状" fill="#FCB334" fill-rule="nonzero"></path>
    </g>
</svg>