<?xml version="1.0" encoding="UTF-8"?>
<svg width="24px" height="24px" viewBox="0 0 24 24" version="1.1" xmlns="http://www.w3.org/2000/svg" xmlns:xlink="http://www.w3.org/1999/xlink">
    <title>ic_editor_locked</title>
    <g id="ic_editor_locked" stroke="none" stroke-width="1" fill="none" fill-rule="evenodd">
        <path d="M10.0925963,7.5 L10.0925963,9.75 L14.9865308,9.75 L14.9865308,7.5 C14.9865308,6.06846026 13.9927296,4.91163223 12.5,4.91163223 C11.0072704,4.91163223 10.0925963,6.06846026 10.0925963,7.5 Z M8.21428571,9.75 L8.21428571,7.5 C8.21428571,5.01445312 10.1328125,3 12.5,3 C14.8671875,3 16.7857143,5.01445312 16.7857143,7.5 L16.7857143,9.75 L17.8571429,9.75 C19.0390625,9.75 20,10.7589844 20,12 L20,18.75 C20,19.9910156 19.0390625,21 17.8571429,21 L7.14285714,21 C5.9609375,21 5,19.9910156 5,18.75 L5,12 C5,10.7589844 5.9609375,9.75 7.14285714,9.75 L8.21428571,9.75 Z M7.00516024,12.7176971 L7.00516024,18.0789211 C7.00516024,18.937173 7.43796999,19.130879 8.21428571,19.130879 L17.0300323,19.130879 C17.8096522,19.130879 18.0156102,18.75 18.0156102,18.0789211 L18.0156102,12.8664761 C18.0156102,12 17.6709243,11.702018 17.0300323,11.702018 L8.21428571,11.702018 C7.25246825,11.702018 7.00516024,12.2260801 7.00516024,12.7176971 Z" id="形状" fill="#FCB334" fill-rule="nonzero"></path>
    </g>
</svg>