<?xml version="1.0" encoding="UTF-8"?>
<svg width="24px" height="24px" viewBox="0 0 24 24" version="1.1" xmlns="http://www.w3.org/2000/svg" xmlns:xlink="http://www.w3.org/1999/xlink">
    <title>ic_editor_unknown</title>
    <g id="ic_editor_unknown" stroke="none" stroke-width="1" fill="none" fill-rule="evenodd">
        <path d="M8.96953125,10.3113281 C9.24726563,9.52734375 9.99257812,9 10.8257813,9 L12.8753906,9 C14.1023437,9 15.09375,9.99492187 15.09375,11.2183594 C15.09375,12.0128906 14.6683594,12.7476563 13.9792969,13.1449219 L12.84375,13.7953125 C12.8367187,14.2523437 12.4605469,14.625 12,14.625 C11.5324219,14.625 11.15625,14.2488281 11.15625,13.78125 L11.15625,13.3066406 C11.15625,13.0042969 11.3179687,12.7265625 11.5816406,12.5753906 L13.1390625,11.6824219 C13.3042969,11.5875 13.40625,11.4117188 13.40625,11.221875 C13.40625,10.9265625 13.1671875,10.6910156 12.8753906,10.6910156 L10.8257812,10.6910156 C10.70625,10.6910156 10.6007812,10.7648438 10.5621094,10.8773438 L10.5480469,10.9195312 C10.3933594,11.3589844 9.90820312,11.5875 9.47226562,11.4328125 C9.03632812,11.278125 8.80429687,10.7929688 8.95898438,10.3570313 L8.97304687,10.3148438 L8.96953125,10.3113281 Z M10.875,16.375 C10.875,15.7536797 11.3786797,15.25 12,15.25 C12.6213203,15.25 13.125,15.7536797 13.125,16.375 C13.125,16.9963203 12.6213203,17.5 12,17.5 C11.3786797,17.5 10.875,16.9963203 10.875,16.375 Z M14.5683594,3 C15.1660156,3 15.7355469,3.25696036 16.1574219,3.71718764 L16.1574219,3.71718764 L19.3425781,7.18806873 C19.7644531,7.648296 20,8.27343791 20,8.92542655 L20,8.92542655 L20,18.5454545 C20,19.8992898 18.9910156,21 17.75,21 L17.75,21 L7.25,21 C6.00898438,21 5,19.8992898 5,18.5454545 L5,18.5454545 L5,5.45454545 C5,4.10071023 6.00898437,3 7.25,3 L7.25,3 Z M14.375,4.84090909 L7.25,4.84090909 C6.940625,4.84090909 6.6875,5.11704545 6.6875,5.45454545 L6.6875,5.45454545 L6.6875,18.5454545 C6.6875,18.8829545 6.940625,19.1590909 7.25,19.1590909 L7.25,19.1590909 L17.75,19.1590909 C18.059375,19.1590909 18.3125,18.8829545 18.3125,18.5454545 L18.3125,18.5454545 L18.3125,9.13636364 L15.5,9.13636364 C14.8777344,9.13636364 14.375,8.58792614 14.375,7.90909091 L14.375,7.90909091 L14.375,4.84090909 Z M15.8707339,5.902572 L15.8707339,7.57516691 L17.4191843,7.57516691 L15.8707339,5.902572 Z" id="形状" fill="#FCB334" fill-rule="nonzero"></path>
    </g>
</svg>