<?xml version="1.0" encoding="UTF-8"?>
<svg width="24px" height="24px" viewBox="0 0 24 24" version="1.1" xmlns="http://www.w3.org/2000/svg" xmlns:xlink="http://www.w3.org/1999/xlink">
    <title>ic_editor_xml</title>
    <g id="ic_editor_xml" stroke="none" stroke-width="1" fill="none" fill-rule="evenodd">
        <path d="M14.6667057,6.14748309 L11.0665651,18.7482566 C10.9287472,19.2264002 10.4309153,19.502036 9.95277159,19.3670307 C9.47462792,19.2292128 9.19899215,18.7313809 9.33399742,18.2532372 L12.9341381,5.65302628 C13.0719559,5.17505136 13.5697879,4.89829055 14.0479316,5.03487088 C14.5260752,5.17142309 14.801711,5.66962068 14.6667057,6.14748309 L14.6667057,6.14748309 Z M17.5861948,8.41472791 L20.7363178,11.564851 C21.0878941,11.9164272 21.0878941,12.4845744 20.7363178,12.8361506 L17.5861948,15.9862737 C17.2346185,16.3378499 16.6664713,16.3378499 16.3148951,15.9862737 C15.9633189,15.6346974 15.9633189,15.0665502 16.3148951,14.714974 L18.8265557,12.2005008 L16.3148951,9.68602757 C15.9633189,9.33445133 15.9633189,8.76630414 16.3148951,8.41472791 C16.6664713,8.06315167 17.2346185,8.06315167 17.5861948,8.41472791 L17.5861948,8.41472791 Z M7.68580804,9.68602757 L5.17274112,12.2005008 L7.68580804,14.714974 C8.03738427,15.0665502 8.03738427,15.6346974 7.68580804,15.9862737 C7.33423181,16.3378499 6.76608461,16.3378499 6.41450838,15.9862737 L3.2635978,12.8361506 C2.91213407,12.4845744 2.91213407,11.9164272 3.2635978,11.564851 L6.41450838,8.41472791 C6.76608461,8.06315167 7.33423181,8.06315167 7.68580804,8.41472791 C8.03738427,8.76630414 8.03738427,9.33445133 7.68580804,9.68602757 L7.68580804,9.68602757 Z" id="形状" fill="#FCB334" fill-rule="nonzero"></path>
    </g>
</svg>