<?xml version="1.0" encoding="UTF-8"?>
<svg width="24px" height="24px" viewBox="0 0 24 24" version="1.1" xmlns="http://www.w3.org/2000/svg" xmlns:xlink="http://www.w3.org/1999/xlink">
    <title>ic_editor_zero</title>
    <g id="ic_editor_zero" stroke="none" stroke-width="1" fill="none" fill-rule="evenodd">
        <path d="M12,4.6875 C16.0385822,4.6875 19.3125,7.96141777 19.3125,12 C19.3125,16.0385822 16.0385822,19.3125 12,19.3125 C7.96141777,19.3125 4.6875,16.0385822 4.6875,12 C4.6875,7.96141777 7.96141777,4.6875 12,4.6875 Z M12,21 C16.9705627,21 21,16.9705627 21,12 C21,7.02943725 16.9705627,3 12,3 C7.02943725,3 3,7.02943725 3,12 C3,16.9705627 7.02943725,21 12,21 Z M12,7.5 C10.1367188,7.5 8.625,9.01171875 8.625,10.875 L8.625,13.125 C8.625,14.9882812 10.1367188,16.5 12,16.5 C13.8632812,16.5 15.375,14.9882812 15.375,13.125 L15.375,10.875 C15.375,9.01171875 13.8632812,7.5 12,7.5 Z M10.3125,10.875 C10.3125,9.94335938 11.0683594,9.1875 12,9.1875 C12.9316406,9.1875 13.6875,9.94335938 13.6875,10.875 L13.6875,13.125 C13.6875,14.0566406 12.9316406,14.8125 12,14.8125 C11.0683594,14.8125 10.3125,14.0566406 10.3125,13.125 L10.3125,10.875 Z" id="形状" fill="#FCB334" fill-rule="nonzero"></path>
    </g>
</svg>