<?xml version="1.0" encoding="UTF-8"?>
<svg width="24px" height="24px" viewBox="0 0 24 24" version="1.1" xmlns="http://www.w3.org/2000/svg" xmlns:xlink="http://www.w3.org/1999/xlink">
    <title>ic_editor_byte</title>
    <g id="ic_editor_byte" stroke="none" stroke-width="1" fill="none" fill-rule="evenodd">
        <path d="M13,21 L7,21 C6.4,21 6,20.6 6,20 L6,4 C6,3.4 6.4,3 7,3 L13,3 C14.3,3 15.6,3.5 16.5,4.5 C17.5,5.4 18,6.7 18,8 C18,9.3 17.5,10.6 16.5,11.5 C16.3,11.7 16.2,11.8 16,12 C16.2,12.1 16.4,12.3 16.5,12.5 C17.4,13.4 18,14.7 18,16 C18,17.3 17.5,18.6 16.5,19.5 C15.5,20.4 14.3,21 13,21 Z M8,19 L13,19 C13.8,19 14.6,18.7 15.1,18.1 C15.6,17.5 16,16.8 16,16 C16,15.2 15.7,14.4 15.1,13.9 C14.6,13.3 13.8,13 13,13 C12.4,13 12,12.6 12,12 C12,11.4 12.4,11 13,11 C13.8,11 14.6,10.7 15.1,10.1 C15.7,9.6 16,8.8 16,8 C16,7.2 15.7,6.4 15.1,5.9 C14.6,5.3 13.8,5 13,5 L8,5 L8,19 Z" id="Shape" fill="#FCB334" fill-rule="nonzero"></path>
        <path d="M13,13 L7,13 C6.4,13 6,12.6 6,12 C6,11.4 6.4,11 7,11 L13,11 C13.6,11 14,11.4 14,12 C14,12.6 13.6,13 13,13 Z" id="Path" fill="#FCB334" fill-rule="nonzero"></path>
    </g>
</svg>