<?xml version="1.0" encoding="UTF-8"?>
<svg width="24px" height="24px" viewBox="0 0 24 24" version="1.1" xmlns="http://www.w3.org/2000/svg" xmlns:xlink="http://www.w3.org/1999/xlink">
    <title>ic_editor_js</title>
    <g id="ic_editor_js" stroke="none" stroke-width="1" fill="none" fill-rule="evenodd">
        <path d="M10.6842597,5.15498735 L10.6842597,14.4348548 C10.6842597,17.2504582 9.25089156,18.5355617 6.84212987,18.5355617 C4.6658492,18.5355617 3.64578061,17.190488 3,15.8278909 L4.41864634,15.0711405 C4.84486155,15.8267039 5.33494781,16.9614516 6.84212987,16.9614516 C8.34931193,16.9614516 8.9746021,15.8278909 8.91213316,14.4348548 L8.91213316,5.15498735 L10.6842597,5.15498735 Z M16.9612473,5 C18.6919393,5 19.9318381,5.60057597 20.8230154,7.17628067 L19.37312,8.07694593 C18.9081579,7.24388893 18.3256066,6.63653296 16.9612473,6.63653296 C15.596888,6.63653296 14.7718227,7.93184398 14.7718227,8.59054021 C14.7718227,9.40422378 15.4126858,10.4197593 16.5815487,10.929926 L18.1935452,11.6056925 C19.8639142,12.4880141 21,12.9818484 21,14.7900341 C21,16.7191412 19.6928993,18.5355617 17.1162346,18.5355617 C14.5912324,18.5355617 12.9574075,17.3344097 12.1630973,15.758705 L13.5019234,14.6355538 C14.083126,15.5848513 15.6244814,16.9004928 16.9612473,16.9004928 C18.0849056,16.9004928 19.2201985,15.9285059 19.2201985,14.7900341 C19.2201985,13.86011 18.1935452,13.4848001 17.6260835,13.2007894 L16.5815487,12.7913498 C14.6183756,11.9582928 12.9832387,10.8055677 12.9832387,8.59054021 C12.9832387,6.54987347 14.53957,5 16.9612473,5 Z" id="形状" fill="#FCB334" fill-rule="nonzero"></path>
    </g>
</svg>