<?xml version="1.0" encoding="UTF-8"?>
<svg width="24px" height="24px" viewBox="0 0 24 24" version="1.1" xmlns="http://www.w3.org/2000/svg" xmlns:xlink="http://www.w3.org/1999/xlink">
    <title>ic_editor_binary</title>
    <g id="ic_editor_binary" stroke="none" stroke-width="1" fill="none" fill-rule="evenodd">
        <path d="M7.25,19.1590909 C6.940625,19.1590909 6.6875,18.8829545 6.6875,18.5454545 L6.6875,5.45454545 C6.6875,5.11704545 6.940625,4.84090909 7.25,4.84090909 L14.375,4.84090909 L14.375,7.90909091 C14.375,8.58792614 14.8777344,9.13636364 15.5,9.13636364 L18.3125,9.13636364 L18.3125,18.5454545 C18.3125,18.8829545 18.059375,19.1590909 17.75,19.1590909 L7.25,19.1590909 Z M7.25,3 C6.00898437,3 5,4.10071023 5,5.45454545 L5,18.5454545 C5,19.8992898 6.00898438,21 7.25,21 L17.75,21 C18.9910156,21 20,19.8992898 20,18.5454545 L20,8.92542655 C20,8.27343791 19.7644531,7.648296 19.3425781,7.18806873 L16.1574219,3.71718764 C15.7355469,3.25696036 15.1660156,3 14.5683594,3 L7.25,3 Z M10.25,10.5681818 C9.16367187,10.5681818 8.28125,11.5308239 8.28125,12.7159091 L8.28125,15.1704545 C8.28125,16.3555398 9.16367187,17.3181818 10.25,17.3181818 L10.8125,17.3181818 C11.8988281,17.3181818 12.78125,16.3555398 12.78125,15.1704545 L12.78125,12.7159091 C12.78125,11.5308239 11.8988281,10.5681818 10.8125,10.5681818 L10.25,10.5681818 Z M9.96875,12.7159091 C9.96875,12.5471591 10.0953125,12.4090909 10.25,12.4090909 L10.8125,12.4090909 C10.9671875,12.4090909 11.09375,12.5471591 11.09375,12.7159091 L11.09375,15.1704545 C11.09375,15.3392045 10.9671875,15.4772727 10.8125,15.4772727 L10.25,15.4772727 C10.0953125,15.4772727 9.96875,15.3392045 9.96875,15.1704545 L9.96875,12.7159091 Z M15.03125,10.5681818 C15.4988281,10.5681818 15.875,10.9785511 15.875,11.4886364 L15.875,11.4886364 L15.875,15.4772727 C16.3425781,15.4772727 16.71875,15.887642 16.71875,16.3977273 C16.71875,16.9078125 16.3425781,17.3181818 15.875,17.3181818 L15.875,17.3181818 L14.1875,17.3181818 C13.7199219,17.3181818 13.34375,16.9078125 13.34375,16.3977273 C13.34375,15.887642 13.7199219,15.4772727 14.1875,15.4772727 L14.1875,15.4772727 L14.1875,12.4090909 C13.7199219,12.4090909 13.34375,11.9987216 13.34375,11.4886364 C13.34375,10.9785511 13.7199219,10.5681818 14.1875,10.5681818 L14.1875,10.5681818 Z M15.8707339,5.902572 L17.4191843,7.57516691 L15.8707339,7.57516691 L15.8707339,5.902572 Z" id="形状" fill="#FCB334" fill-rule="nonzero"></path>
    </g>
</svg>