<?xml version="1.0" encoding="UTF-8"?>
<svg width="24px" height="24px" viewBox="0 0 24 24" version="1.1" xmlns="http://www.w3.org/2000/svg" xmlns:xlink="http://www.w3.org/1999/xlink">
    <title>ic_editor_image</title>
    <g id="ic_editor_image" stroke="none" stroke-width="1" fill="none" fill-rule="evenodd">
        <path d="M18.75,5.6875 C19.059375,5.6875 19.3125,5.940625 19.3125,6.25 L19.3125,17.4929688 L19.1367188,17.2644531 L14.3554688,11.0769531 C14.1972656,10.8695313 13.9476562,10.75 13.6875,10.75 C13.4273438,10.75 13.18125,10.8695313 13.0195312,11.0769531 L10.1015625,14.8527344 L9.02929688,13.3515625 C8.87109375,13.1300781 8.61796875,13 8.34375,13 C8.06953125,13 7.81640625,13.1300781 7.65820312,13.3550781 L4.84570312,17.2925781 L4.6875,17.5105469 L4.6875,17.5 L4.6875,6.25 C4.6875,5.940625 4.940625,5.6875 5.25,5.6875 L18.75,5.6875 Z M5.25,4 C4.00898437,4 3,5.00898437 3,6.25 L3,17.5 C3,18.7410156 4.00898437,19.75 5.25,19.75 L18.75,19.75 C19.9910156,19.75 21,18.7410156 21,17.5 L21,6.25 C21,5.00898437 19.9910156,4 18.75,4 L5.25,4 Z M13.7004265,13.3131288 L17.3782304,18.0372079 L6.58431032,18.0372079 L8.26661307,15.619288 L8.42186267,15.3961527 L8.57672536,15.6181258 L9.76664823,17.3509206 C9.9033228,17.5346701 10.0318462,17.6265448 10.1522184,17.6265448 C10.2725907,17.6265448 10.4111487,17.5346701 10.5678925,17.3509206 L13.7004265,13.3131288 Z M8.0625,7.375 C8.66538569,7.375 9.22247505,7.69663567 9.5239179,8.21874999 C9.82536075,8.74086431 9.82536075,9.38413569 9.5239179,9.90625001 C9.22247505,10.4283643 8.66538569,10.75 8.0625,10.75 C7.13051948,10.75 6.375,9.99448052 6.375,9.0625 C6.375,8.13051948 7.13051948,7.375 8.0625,7.375 Z" id="形状" fill="#FCB334" fill-rule="nonzero"></path>
    </g>
</svg>