<?xml version="1.0" encoding="UTF-8"?>
<svg width="24px" height="24px" viewBox="0 0 24 24" version="1.1" xmlns="http://www.w3.org/2000/svg" xmlns:xlink="http://www.w3.org/1999/xlink">
    <title>ic_state_link_on</title>
    <g id="ic_state_link_on" stroke="none" stroke-width="1" fill="none" fill-rule="evenodd">
        <path d="M20.5976669,12.398035 C22.4674444,10.4759 22.4674444,7.36306186 20.5976669,5.44092682 C18.9429966,3.73992237 16.3352362,3.51879179 14.4323654,4.91701745 L14.3794159,4.95443955 C13.9028709,5.30484647 13.7936626,5.98524825 14.1345247,6.47173552 C14.4753868,6.9582228 15.1372549,7.0738911 15.6104906,6.72348418 L15.6634401,6.68606209 C16.7257384,5.90700205 18.1785389,6.02947437 19.0985356,6.97863485 C20.1409779,8.05026766 20.1409779,9.7852922 19.0985356,10.856925 L15.3854554,14.680783 C14.3430132,15.7524158 12.6552494,15.7524158 11.6128071,14.680783 C10.6895011,13.7316225 10.5703649,12.2381406 11.3282039,11.1494978 L11.3646066,11.0950656 C11.7054687,10.6051763 11.5929511,9.92477457 11.1197154,9.57776966 C10.6464797,9.23076475 9.98130223,9.34303104 9.64374948,9.82951832 L9.60734674,9.88395046 C8.2438984,11.8367036 8.45900554,14.5174866 10.1136759,16.218491 C11.9834533,18.1406261 15.0115,18.1406261 16.8812774,16.218491 L20.5976669,12.398035 Z M3.40233309,11.601965 C1.53255564,13.5241 1.53255564,16.6369381 3.40233309,18.5590732 C5.05700339,20.2600776 7.6647638,20.4812082 9.56763465,19.0829825 L9.6205841,19.0455604 C10.0971291,18.6951535 10.2063374,18.0147517 9.8654753,17.5282645 C9.52461322,17.0417772 8.8627451,16.9261089 8.38950939,17.2765158 L8.33655994,17.3139379 C7.2742616,18.092998 5.82146107,17.9705256 4.90146438,17.0213651 C3.85902209,15.9463303 3.85902209,14.2113058 4.90146438,13.139673 L8.61454455,9.31921698 C9.65698685,8.24758417 11.3447506,8.24758417 12.3871929,9.31921698 C13.3104989,10.2683775 13.4296351,11.7618594 12.6717961,12.8539042 L12.6353934,12.9083364 C12.2945313,13.3982257 12.4070489,14.0786274 12.8802846,14.4256324 C13.3535203,14.7726373 14.0186978,14.660371 14.3562505,14.1738837 L14.3926533,14.1194515 C15.7561016,12.1632964 15.5409945,9.48251341 13.8863241,7.78150895 C12.0165467,5.85937392 8.98850004,5.85937392 7.11872259,7.78150895 L3.40233309,11.601965 Z" id="Shape" fill="#FCB334" fill-rule="nonzero"></path>
    </g>
</svg>