<?xml version="1.0" encoding="UTF-8"?>
<svg width="24px" height="24px" viewBox="0 0 24 24" version="1.1" xmlns="http://www.w3.org/2000/svg" xmlns:xlink="http://www.w3.org/1999/xlink">
    <title>ic_state_rewrite_on</title>
    <g id="ic_state_rewrite_on" stroke="none" stroke-width="1" fill="none" fill-rule="evenodd">
        <path d="M19.5313816,2.64826434 L21.3536924,4.46899396 C22.2154359,5.33350453 22.2154359,6.73403537 21.3536924,7.59973182 L18.1320366,10.8174346 L16.5271382,16.7112858 C16.3334435,17.4149113 15.8116539,17.9762304 15.1238403,18.2173605 L4.68290854,21.8856998 C3.95161245,22.1426417 3.13809496,21.9568529 2.59021584,21.375769 C2.04225765,20.8618853 1.85712115,20.0475772 2.1139642,19.3162811 L5.78261975,8.87653527 C6.02414511,8.18872165 6.58546427,7.666932 7.2890897,7.47323736 L13.1473643,5.86715303 L16.4006437,2.64826434 C17.2663402,1.78391189 18.6656851,1.78391189 19.5313816,2.64826434 Z M18.4707524,4.46623507 C17.981804,3.97549971 17.5,4.5 17.5,4.5 L17.5,4.5 L15.5,6.5 L17.5,8.5 L19.5,6.5 C19.5,6.5 19.9867158,5.99084757 19.5,5.5 L19.5,5.5 Z M13.5742831,7.72622628 L7.78716163,9.30345407 C7.65276127,9.33112473 7.60532585,9.40623082 7.57370223,9.50505461 L4.30737812,18.7984444 L8.34848079,14.7585276 C8.22989224,14.5094917 8.16269206,14.232785 8.16269206,13.9402666 C8.16269206,12.8927343 9.0125767,12.0428497 10.0601089,12.0428497 C11.1076412,12.0428497 11.9575258,12.8927343 11.9575258,13.9402666 C11.9575258,14.9877988 11.1076412,15.8376835 10.0601089,15.8376835 C9.76759051,15.8376835 9.49088388,15.7704833 9.24184791,15.6518947 L5.20193112,19.6918115 L14.4953209,16.4266733 C14.5941447,16.3950497 14.6692508,16.3120377 14.6969215,16.2132139 L16.2741492,10.4260924 L13.5742831,7.72622628 Z" id="Shape" fill="#FCB334" fill-rule="nonzero"></path>
    </g>
</svg>