<?xml version="1.0" encoding="UTF-8"?>
<svg width="24px" height="24px" viewBox="0 0 24 24" version="1.1" xmlns="http://www.w3.org/2000/svg" xmlns:xlink="http://www.w3.org/1999/xlink">
    <title>ic_state_mirror_on</title>
    <g id="ic_state_mirror_on" stroke="none" stroke-width="1" fill="none" fill-rule="evenodd">
        <g id="group" transform="translate(3.000000, 2.000000)" fill="#FCB334" fill-rule="nonzero">
            <path d="M9,0 C8.65483333,0 8.04944702,0.26234375 8.04944702,0.5859375 L8.04944702,3.3203125 C8.04944702,3.64390625 8.65483333,3.90625 9,3.90625 C9.34516667,3.90625 10.0029975,3.64390625 10.0029975,3.3203125 L10.0029975,0.5859375 C10.0029975,0.26234375 9.34516667,0 9,0 Z" id="Path"></path>
            <path d="M9,5.3515625 C8.65483333,5.3515625 8.04944702,5.61390625 8.04944702,5.9375 L8.04944702,8.671875 C8.04944702,8.99546875 8.65483333,9.2578125 9,9.2578125 C9.34516667,9.2578125 10.0029975,8.99546875 10.0029975,8.671875 L10.0029975,5.9375 C10.0029975,5.61390625 9.34516667,5.3515625 9,5.3515625 Z" id="Path"></path>
            <path d="M9,10.7421875 C8.65483333,10.7421875 8.04944702,11.0045313 8.04944702,11.328125 L8.04944702,14.0625 C8.04944702,14.3860937 8.65483333,14.6484375 9,14.6484375 C9.34516667,14.6484375 10.0029975,14.3860937 10.0029975,14.0625 L10.0029975,11.328125 C10.0029975,11.0045313 9.34516667,10.7421875 9,10.7421875 Z" id="Path"></path>
            <path d="M9,16.09375 C8.65483333,16.09375 8.04944702,16.3560938 8.04944702,16.6796875 L8.04944702,19.4140625 C8.04944702,19.7376562 8.65483333,20 9,20 C9.34516667,20 10.0029975,19.7376562 10.0029975,19.4140625 L10.0029975,16.6796875 C10.0029975,16.3560938 9.34516667,16.09375 9,16.09375 Z" id="Path"></path>
            <path d="M5.80841667,4.04308594 L0.808416667,2.60394531 C0.618875,2.54933594 0.412958333,2.58238281 0.253541667,2.69285156 C0.0940833333,2.80332031 0,2.97816406 0,3.1640625 L0,16.8359375 C0,17.0218359 0.0940833333,17.1966797 0.253541667,17.3071484 C0.413583333,17.4180469 0.619666667,17.4504297 0.808416667,17.3960156 L5.80841667,15.956875 C6.070875,15.8813672 6.25,15.6541016 6.25,15.3967578 L6.25,4.60320312 C6.25,4.34585937 6.07083333,4.11863281 5.80841667,4.04308594 Z M4.58597591,14.6484375 L1.6956191,15.3967969 L1.6956191,4.45450555 L4.58597591,5.3515625 L4.58597591,14.6484375 Z" id="Shape"></path>
            <path d="M17.7464583,2.69285156 C17.587,2.58238281 17.3810833,2.54933594 17.1915833,2.60394531 L12.1915833,4.04308594 C11.929125,4.11859375 11.75,4.34585937 11.75,4.60320312 L11.75,15.3967969 C11.75,15.6541406 11.9291667,15.8813672 12.1915833,15.9569141 L17.1915833,17.3960547 C17.3818333,17.4508203 17.587625,17.4171875 17.7464583,17.3071484 C17.9059167,17.1966797 18,17.0218359 18,16.8359375 L18,3.1640625 C18,2.97816406 17.9059167,2.80332031 17.7464583,2.69285156 Z M16.2429666,15.3967969 L13.4954009,14.5458027 L13.4954009,5.27267089 L16.2429666,4.45450555 L16.2429666,15.3967969 Z" id="Shape"></path>
        </g>
    </g>
</svg>