<?xml version="1.0" encoding="UTF-8"?>
<svg width="24px" height="24px" viewBox="0 0 24 24" version="1.1" xmlns="http://www.w3.org/2000/svg" xmlns:xlink="http://www.w3.org/1999/xlink">
    <title>ic_state_breakpoint_on</title>
    <g id="ic_state_breakpoint_on" stroke="none" stroke-width="1" fill="none" fill-rule="evenodd">
        <path d="M12,2 C14.0703125,2 15.75,3.67972643 15.75,5.75183195 L15.75,5.89096238 C15.75,6.5061065 15.2539062,7.0024426 14.640625,7.0024426 L9.359375,7.0024426 C8.74609375,7.0024426 8.25,6.5061065 8.25,5.89096238 L8.25,5.75183195 C8.25,3.67972643 9.89453125,2 12,2 Z M12,3.5 C11.1578125,3.5 10.5,4.17274539 10.5,5.0026614 L10.5,5.0026614 L10.5,5.05838567 C10.5,5.3047621 10.6984375,5.50355375 10.94375,5.50355375 L10.94375,5.50355375 L13.05625,5.50355375 C13.3015625,5.50355375 13.5,5.3047621 13.5,5.05838567 L13.5,5.05838567 L13.5,5.0026614 C13.5,4.17274539 12.828125,3.5 12,3.5 Z M3.52460937,6.02540303 C3.890625,5.66038105 4.484375,5.66038105 4.85039063,6.02540303 L7.6796875,8.85881778 C8.30078125,8.47581827 8.99609375,8.25305325 9.8125,8.25305325 L14.1875,8.25305325 C14.96875,8.25305325 15.6992188,8.47581827 16.3203125,8.85881778 L19.1484375,6.02540303 C19.515625,5.66038105 20.109375,5.66038105 20.4414062,6.02540303 C20.8398438,6.39276991 20.8398438,6.98680997 20.4414062,7.31900342 L17.6445312,10.1836834 C18.0273438,10.8050806 18.25,11.5007328 18.25,12.3175379 L21.0625,12.3175379 C21.5820312,12.3175379 22,12.7357108 22,13.2554958 C22,13.7752809 21.5820312,14.1934538 21.0625,14.1934538 L18.25,14.1934538 L18.25,14.5061065 C18.25,15.5691255 17.984375,16.5696141 17.515625,17.4489497 L20.4414062,20.4074255 C20.8398438,20.7747924 20.8398438,21.3688324 20.4414062,21.7010259 C20.109375,22.099658 19.515625,22.099658 19.1484375,21.7010259 L16.3828125,18.9653151 C15.2539062,20.075232 13.7070312,20.7591597 12,20.7591597 C10.2929688,20.7591597 8.74609375,20.075232 7.6171875,18.9653151 L4.85039063,21.7010259 C4.484375,22.099658 3.890625,22.099658 3.52460937,21.7010259 C3.15859375,21.3688324 3.15859375,20.7747924 3.52460937,20.4074255 L6.484375,17.4489497 C6.015625,16.5696141 5.75,15.5691255 5.75,14.5061065 L5.75,14.1934538 L2.9375,14.1934538 C2.41992188,14.1934538 2,13.7752809 2,13.2554958 C2,12.7357108 2.41992188,12.3175379 2.9375,12.3175379 L5.75,12.3175379 C5.75,11.5007328 5.97265625,10.8050806 6.35546875,10.1836834 L3.52460937,7.31900342 C3.15859375,6.98680997 3.15859375,6.39276991 3.52460937,6.02540303 L3.52460937,6.02540303 Z M7.625,14.5061065 C7.625,16.6008793 9.09765625,18.3517342 11.0625,18.7816317 L11.0625,12.9428432 C11.0625,12.4230581 11.4804688,12.0048852 12,12.0048852 C12.5195312,12.0048852 12.9375,12.4230581 12.9375,12.9428432 L12.9375,18.7816317 C14.9023438,18.3517342 16.375,16.6008793 16.375,14.5061065 L16.375,12.3175379 C16.375,11.109917 15.3945312,10.1289692 14.1875,10.1289692 L9.8125,10.1289692 C8.60546875,10.1289692 7.625,11.109917 7.625,12.3175379 L7.625,14.5061065 Z" id="Shape" fill="#FCB334" fill-rule="nonzero"></path>
    </g>
</svg>