<?xml version="1.0" encoding="UTF-8"?>
<svg width="24px" height="24px" viewBox="0 0 24 24" version="1.1" xmlns="http://www.w3.org/2000/svg" xmlns:xlink="http://www.w3.org/1999/xlink">
    <title>ic_editor_chat</title>
    <g id="ic_editor_chat" stroke="none" stroke-width="1" fill="none" fill-rule="evenodd">
        <path d="M4.35,7.025 C4.35,6.6509375 4.6509375,6.35 5.025,6.35 L12.675,6.35 C13.0490625,6.35 13.35,6.6509375 13.35,7.025 L13.35,11.975 C13.35,12.3490625 13.0490625,12.65 12.675,12.65 L9.075,12.65 C8.9428125,12.65 8.810625,12.689375 8.7009375,12.7625 L7.05,13.865 L7.05,13.325 C7.05,12.9509375 6.7490625,12.65 6.375,12.65 L5.025,12.65 C4.6509375,12.65 4.35,12.3490625 4.35,11.975 L4.35,7.025 Z M5.025,5 C3.905625,5 3,5.905625 3,7.025 L3,11.975 C3,13.094375 3.905625,14 5.025,14 L5.7,14 L5.7,15.125 C5.7,15.3753125 5.8378125,15.603125 6.0571875,15.72125 C6.2765625,15.839375 6.54375,15.8253125 6.7490625,15.6875 L9.2803125,14 L12.675,14 C13.794375,14 14.7,13.094375 14.7,11.975 L14.7,7.025 C14.7,5.905625 13.794375,5 12.675,5 L5.025,5 Z M10.2,15.575 C10.2,16.694375 11.105625,17.6 12.225,17.6 L14.7196875,17.6 L17.2509375,19.2875 C17.4590625,19.4253125 17.7234375,19.439375 17.9428125,19.32125 C18.1621875,19.203125 18.3,18.9753125 18.3,18.725 L18.3,17.6 L18.975,17.6 C20.094375,17.6 21,16.694375 21,15.575 L21,10.625 C21,9.505625 20.094375,8.6 18.975,8.6 L15.6,8.6 L15.6,9.95 L18.975,9.95 C19.3490625,9.95 19.65,10.2509375 19.65,10.625 L19.65,15.575 C19.65,15.9490625 19.3490625,16.25 18.975,16.25 L17.625,16.25 C17.2509375,16.25 16.95,16.5509375 16.95,16.925 L16.95,17.465 L15.2990625,16.3625 C15.189375,16.289375 15.0571875,16.25 14.925,16.25 L12.225,16.25 C11.8509375,16.25 11.55,15.9490625 11.55,15.575 L11.55,14.9 L10.2,14.9 L10.2,15.575 Z" id="形状" fill="#FCB334" fill-rule="nonzero"></path>
    </g>
</svg>