<?xml version="1.0" encoding="UTF-8"?>
<svg width="24px" height="24px" viewBox="0 0 24 24" version="1.1" xmlns="http://www.w3.org/2000/svg" xmlns:xlink="http://www.w3.org/1999/xlink">
    <title>ic_code_json</title>
    <g id="ic_code_json" stroke="none" stroke-width="1" fill="none" fill-rule="evenodd">
        <path d="M18.9999,8.9988 L18.9999,7.0008 C18.9999,4.7925 17.2089,3 15,3 L15,5.001 C16.1037,5.001 17.0001,5.8968 17.0001,7.0008 L17.0001,8.9988 C17.0001,10.2006 17.541,11.2665 18.3801,12 C17.541,12.7332 17.0001,13.7976 17.0001,15 L17.0001,16.9998 C17.0001,18.1044 16.1037,18.9999 14.9991,18.9999 L14.9991,21 C17.2068,21 18.9999,19.2099 18.9999,16.9998 L18.9999,15 C18.9999,13.8954 19.8963,12.9999 21,12.9999 L21,10.9989 C19.8945,10.9989 18.9999,10.1031 18.9999,8.9988 Z" id="路径" fill="#FCB334" fill-rule="nonzero"></path>
        <path d="M7.0011,9 L7.0011,6.9999 C7.0011,5.8953 7.8975,4.9998 9.0021,4.9998 L9.0021,3 C6.7932,3 5.001,4.7901 5.001,6.9999 L5.0001,9 C5.0001,10.1046 4.1046,10.9998 3,10.9998 L3,12.9999 L3.0009,13.0008 C4.1055,13.0008 5.001,13.8963 5.001,15.0009 L5.001,16.9989 C5.001,19.2069 6.7911,21 9.0009,21 L9.0009,18.999 C7.8963,18.999 7.0011,18.1035 7.0011,16.9989 L7.0011,15.0009 C7.0011,13.7988 6.4599,12.7332 5.6211,12 C6.4599,11.2665 7.0011,10.2015 7.0011,9 Z" id="路径" fill="#FCB334" fill-rule="nonzero"></path>
    </g>
</svg>