<?xml version="1.0" encoding="UTF-8"?>
<svg width="24px" height="24px" viewBox="0 0 24 24" version="1.1" xmlns="http://www.w3.org/2000/svg" xmlns:xlink="http://www.w3.org/1999/xlink">
    <title>ic_editor_zip</title>
    <g id="ic_editor_zip" stroke="none" stroke-width="1" fill="none" fill-rule="evenodd">
        <path d="M13.785712,7.9457794 L13.785712,9.03018561 L13.142856,9.03018561 C12.7878164,9.03018563 12.5,9.32532556 12.5,9.68939912 C12.5,10.0534727 12.7878164,10.3486126 13.142856,10.3486126 L13.785712,10.3486126 L13.785712,11.6670396 L13.142856,11.6670396 C12.7878164,11.6670396 12.5,11.9621796 12.5,12.3262531 C12.5,12.6903267 12.7878164,12.9854666 13.142856,12.9854666 L13.785712,12.9854666 L13.785712,14.3038937 L13.142856,14.3038937 C12.7878164,14.3038937 12.5,14.5990336 12.5,14.9631072 C12.5,15.3271807 12.7878164,15.6223207 13.142856,15.6223207 L13.785712,15.6223207 L13.785712,16.2815342 C13.785712,16.6456077 14.332646,16.9111934 14.6876855,16.9111934 C15.0427251,16.9111934 15.4855502,16.6456077 15.4855502,16.2815342 L15.4855502,14.3118835 L16.4090035,14.3118835 C16.764043,14.3118835 17.0518595,14.0167435 17.0518595,13.65267 C17.0518595,13.2885964 16.764043,12.9934564 16.4090035,12.9934564 L15.4855502,12.9934564 L15.4855502,11.6670396 L16.4090035,11.6737557 C16.764043,11.6737557 17.0518595,11.3786157 17.0518595,11.0145422 C17.0518595,10.6504686 16.764043,10.3553287 16.4090035,10.3553287 L15.4855502,10.3486126 L15.4855502,7.9457794 C14.334259,7.93205553 13.7676463,7.93205553 13.785712,7.9457794 Z M3,6.25 C3,5.00898437 4.00898437,4 5.25,4 L9.89414062,4 C10.565625,4 11.2089844,4.2671875 11.6835938,4.74179688 L13.1917969,6.25 L18.75,6.25 C19.9910156,6.25 21,7.25898438 21,8.5 L21,17.5 C21,18.7410156 19.9910156,19.75 18.75,19.75 L5.25,19.75 C4.00898437,19.75 3,18.7410156 3,17.5 L3,6.25 Z M5.25,5.6875 C4.940625,5.6875 4.6875,5.940625 4.6875,6.25 L4.6875,17.5 C4.6875,17.809375 4.940625,18.0625 5.25,18.0625 L18.75,18.0625 C19.059375,18.0625 19.3125,17.809375 19.3125,17.5 L19.3125,8.5 C19.3125,8.190625 19.059375,7.9375 18.75,7.9375 L13.0757813,7.9375 C12.703125,7.9375 12.3445312,7.78984375 12.0808594,7.52617188 L10.4917969,5.93359375 C10.3335937,5.77539062 10.1191406,5.6875 9.89414063,5.6875 L5.25,5.6875 Z" id="形状" fill="#FCB334" fill-rule="nonzero"></path>
    </g>
</svg>