<?xml version="1.0" encoding="UTF-8"?>
<svg width="24px" height="24px" viewBox="0 0 24 24" version="1.1" xmlns="http://www.w3.org/2000/svg" xmlns:xlink="http://www.w3.org/1999/xlink">
    <title>ic_editor_event</title>
    <g id="ic_editor_event" stroke="none" stroke-width="1" fill="none" fill-rule="evenodd">
        <path d="M9.75,3.84375 C9.75,4.31132812 10.1261719,4.6875 10.59375,4.6875 C15.4101562,4.6875 19.3125,8.58984375 19.3125,13.40625 C19.3125,13.8738281 19.6886719,14.25 20.15625,14.25 C20.6238281,14.25 21,13.8738281 21,13.40625 C21,7.65820312 16.3417969,3 10.59375,3 C10.1261719,3 9.75,3.37617187 9.75,3.84375 Z M10.59375,6.65625 C10.1261719,6.65625 9.75,7.03242187 9.75,7.5 C9.75,7.96757813 10.1261719,8.34375 10.59375,8.34375 C13.3886719,8.34375 15.65625,10.6113281 15.65625,13.40625 C15.65625,13.8738281 16.0324219,14.25 16.5,14.25 C16.9675781,14.25 17.34375,13.8738281 17.34375,13.40625 C17.34375,9.6796875 14.3203125,6.65625 10.59375,6.65625 Z M10.3476562,14.8476562 L11.7539062,13.4414062 C12.084375,13.1109375 12.084375,12.5765625 11.7539062,12.2496094 C11.4234375,11.9226563 10.8890625,11.9191406 10.5621094,12.2496094 L9.15585937,13.6558594 L5.49609375,9.99609375 C5.02148438,9.52148438 4.23398438,9.56367187 3.91054688,10.1507812 C3.33046875,11.1984375 3,12.4042969 3,13.6875 C3,17.7269531 6.27304688,21 10.3125,21 C11.5957031,21 12.8015625,20.6695312 13.8492188,20.0894531 C14.4363281,19.7660156 14.475,18.9785156 14.0039062,18.5039062 L10.3476562,14.8476562 Z M4.6875,13.6875 C4.6875,13.0511719 4.79296875,12.4394531 4.98632812,11.8734375 L12.1265625,19.0136719 C11.5605469,19.2070312 10.9488281,19.3125 10.3125,19.3125 C7.2046875,19.3125 4.6875,16.7953125 4.6875,13.6875 Z" id="形状" fill="#000000" fill-rule="nonzero"></path>
    </g>
</svg>