<?xml version="1.0" encoding="UTF-8"?>
<svg width="24px" height="24px" viewBox="0 0 24 24" version="1.1" xmlns="http://www.w3.org/2000/svg" xmlns:xlink="http://www.w3.org/1999/xlink">
    <title>ic_editor_css</title>
    <g id="ic_editor_css" stroke="none" stroke-width="1" fill="none" fill-rule="evenodd">
        <path d="M10.7392857,4.01685924 C11.2035714,4.10971638 11.5035714,4.55971638 11.4107143,5.0240021 L10.875,7.71328781 L14.8392857,7.71328781 L15.4428571,4.68828781 C15.5357143,4.2240021 15.9857143,3.9240021 16.45,4.01685924 C16.9142857,4.10971638 17.2142857,4.55971638 17.1214286,5.0240021 L16.5892857,7.71328781 L19.1428571,7.71328781 C19.6178571,7.71328781 20,8.09543067 20,8.57043067 C20,9.04543067 19.6178571,9.42757353 19.1428571,9.42757353 L16.2464286,9.42757353 L15.2178571,14.5704307 L18,14.5704307 C18.475,14.5704307 18.8571429,14.9525735 18.8571429,15.4275735 C18.8571429,15.9025735 18.475,16.2847164 18,16.2847164 L14.875,16.2847164 L14.2714286,19.3097164 C14.1785714,19.7740021 13.7285714,20.0740021 13.2642857,19.981145 C12.8,19.8882878 12.5,19.4382878 12.5928571,18.9740021 L13.125,16.2847164 L9.16071429,16.2847164 L8.55714286,19.3097164 C8.46428571,19.7740021 8.01428571,20.0740021 7.55,19.981145 C7.08571429,19.8882878 6.78571429,19.4382878 6.87857143,18.9740021 L7.41071429,16.2847164 L4.85714286,16.2847164 C4.38214286,16.2847164 4,15.9025735 4,15.4275735 C4,14.9525735 4.38214286,14.5704307 4.85714286,14.5704307 L7.75357143,14.5704307 L8.78214286,9.42757353 L6,9.42757353 C5.525,9.42757353 5.14285714,9.04543067 5.14285714,8.57043067 C5.14285714,8.09543067 5.525,7.71328781 6,7.71328781 L9.125,7.71328781 L9.72857143,4.68828781 C9.82142857,4.2240021 10.2714286,3.9240021 10.7357143,4.01685924 L10.7392857,4.01685924 Z M10.5321429,9.42757353 L9.50357143,14.5704307 L13.4678571,14.5704307 L14.4964286,9.42757353 L10.5321429,9.42757353 Z" id="形状" fill="#FCB334" fill-rule="nonzero"></path>
    </g>
</svg>