<?xml version="1.0" encoding="UTF-8"?>
<svg width="24px" height="24px" viewBox="0 0 24 24" version="1.1" xmlns="http://www.w3.org/2000/svg" xmlns:xlink="http://www.w3.org/1999/xlink">
    <title>ic_editor_raw</title>
    <g id="ic_editor_raw" stroke="none" stroke-width="1" fill="none" fill-rule="evenodd">
        <path d="M19.7283636,14.008152 L19.7272727,9.83978182 C19.7274364,9.83252727 19.7283636,9.82543636 19.7283636,9.81818182 C19.7283636,9.62149091 19.6581636,9.44165455 19.5425273,9.30054545 C19.5239818,9.27812727 19.5081091,9.26078182 19.4915273,9.24398182 C19.4891273,9.24158182 19.4867818,9.23912727 19.4843818,9.23672727 C19.4771273,9.22958182 19.4704727,9.22189091 19.4629455,9.21501818 L13.4877636,3.23978182 C13.4702,3.22227273 13.4526909,3.20667273 13.4348,3.19161818 C13.4291273,3.18687273 13.4232909,3.18245455 13.4175636,3.17781818 C13.4044182,3.1674 13.3911091,3.15736364 13.3774182,3.14781818 C13.3706545,3.14307273 13.3638364,3.13838182 13.3569091,3.13385455 C13.3425091,3.12441818 13.3277818,3.11558182 13.3128909,3.10712727 C13.3068909,3.10369091 13.3010545,3.09998182 13.2948909,3.09670909 C13.2750364,3.08612727 13.2548545,3.07641818 13.2342909,3.06752727 C13.226,3.06392727 13.2173818,3.06076364 13.2089273,3.05743636 C13.1952909,3.05203636 13.1815455,3.04696364 13.1676364,3.04232727 C13.1580909,3.03916364 13.1485455,3.03610909 13.1388909,3.03327273 C13.1231273,3.02869091 13.1072,3.02465455 13.0911636,3.021 C13.0840182,3.01941818 13.0770364,3.0174 13.0697818,3.01592727 C13.0468727,3.01134545 13.0237455,3.00796364 13.0005091,3.0054 C12.9934182,3.00458182 12.9862182,3.00414545 12.9790182,3.00349091 C12.9598182,3.0018 12.9405636,3.00087273 12.9212,3.00054545 C12.9171636,3.00054545 12.9132364,3 12.9090909,3 L6.00281487,3 C5.55096032,3 5,3.55311956 5,4.00497411 L5,20.0401821 C5,20.4920367 5.55096032,21 6.00281487,21 L18.9090909,21 C19.3609455,21 19.7272727,20.6336727 19.7272727,20.1818182 L19.7283636,16.0047556 L19.7283636,14.008152 Z M14,6.46499607 L16.638407,9 L14,9 L14,6.46499607 Z M17.7996401,19.0357954 L7.00021318,19.0357954 L7.00021318,4.9965856 L12.0909091,4.9965856 L12.0950545,9.97112565 C12.0950545,10.4229802 12.5486545,10.9826471 13.0005091,10.9826471 L17.7996401,10.9826471 L17.7996401,14.008152 L17.7996401,16.0047556 L17.7996401,19.0357954 Z" id="XMLID_227_" fill="#FCB334" fill-rule="nonzero"></path>
    </g>
</svg>