<?xml version="1.0" encoding="UTF-8"?>
<svg width="24px" height="24px" viewBox="0 0 24 24" version="1.1" xmlns="http://www.w3.org/2000/svg" xmlns:xlink="http://www.w3.org/1999/xlink">
    <title>ic_editor_video</title>
    <g id="ic_editor_video" stroke="none" stroke-width="1" fill="none" fill-rule="evenodd">
        <path d="M15.375,18.0625 L8.625,18.0625 L8.625,14.125 L8.625,12.71875 L15.375,12.71875 L15.375,14.125 L15.375,18.0625 Z M15.375,11.03125 L8.625,11.03125 L8.625,9.625 L8.625,5.6875 L15.375,5.6875 L15.375,9.625 L15.375,11.03125 Z M5.25,5.6875 L6.9375,5.6875 L6.9375,8.78125 L4.6875,8.78125 L4.6875,6.25 C4.6875,5.940625 4.940625,5.6875 5.25,5.6875 Z M4.6875,10.46875 L6.9375,10.46875 L6.9375,13.28125 L4.6875,13.28125 L4.6875,10.46875 Z M6.9375,18.0625 L5.25,18.0625 C4.940625,18.0625 4.6875,17.809375 4.6875,17.5 L4.6875,14.96875 L6.9375,14.96875 L6.9375,18.0625 Z M17.0625,8.78125 L17.0625,5.6875 L18.75,5.6875 C19.059375,5.6875 19.3125,5.940625 19.3125,6.25 L19.3125,8.78125 L17.0625,8.78125 Z M17.0625,10.46875 L19.3125,10.46875 L19.3125,13.28125 L17.0625,13.28125 L17.0625,10.46875 Z M17.0625,14.96875 L19.3125,14.96875 L19.3125,17.5 C19.3125,17.809375 19.059375,18.0625 18.75,18.0625 L17.0625,18.0625 L17.0625,14.96875 Z M18.75,4 L5.25,4 C4.00898437,4 3,5.00898437 3,6.25 L3,17.5 C3,18.7410156 4.00898437,19.75 5.25,19.75 L18.75,19.75 C19.9910156,19.75 21,18.7410156 21,17.5 L21,6.25 C21,5.00898437 19.9910156,4 18.75,4 Z" id="形状" fill="#FCB334" fill-rule="nonzero"></path>
    </g>
</svg>