<?xml version="1.0" encoding="UTF-8"?>
<svg width="24px" height="24px" viewBox="0 0 24 24" version="1.1" xmlns="http://www.w3.org/2000/svg" xmlns:xlink="http://www.w3.org/1999/xlink">
    <title>ic_editor_hex</title>
    <g id="ic_editor_hex" stroke="none" stroke-width="1" fill="none" fill-rule="evenodd">
        <path d="M14.5683594,3 C15.1660156,3 15.7355469,3.25696036 16.1574219,3.71718764 L16.1574219,3.71718764 L19.3425781,7.18806873 C19.7644531,7.648296 20,8.27343791 20,8.92542655 L20,8.92542655 L20,18.5454545 C20,19.8992898 18.9910156,21 17.75,21 L17.75,21 L7.25,21 C6.00898438,21 5,19.8992898 5,18.5454545 L5,18.5454545 L5,5.45454545 C5,4.10071023 6.00898437,3 7.25,3 L7.25,3 Z M14.375,4.84090909 L7.25,4.84090909 C6.940625,4.84090909 6.6875,5.11704545 6.6875,5.45454545 L6.6875,5.45454545 L6.6875,18.5454545 C6.6875,18.8829545 6.940625,19.1590909 7.25,19.1590909 L7.25,19.1590909 L17.75,19.1590909 C18.059375,19.1590909 18.3125,18.8829545 18.3125,18.5454545 L18.3125,18.5454545 L18.3125,9.13636364 L15.5,9.13636364 C14.8777344,9.13636364 14.375,8.58792614 14.375,7.90909091 L14.375,7.90909091 L14.375,4.84090909 Z M10.9958496,10.4 L10.9958496,12.8978841 L13.0103353,12.8978841 L13.0103353,10.4 L14.5327962,10.4 L14.5327962,16.864681 L13.0103353,16.864681 L13.0103353,14.6824707 L10.9958496,14.6824707 L10.9958496,16.864681 L9.44999186,16.864681 L9.44999186,10.4 L10.9958496,10.4 Z M15.8707339,5.902572 L15.8707339,7.57516691 L17.4191843,7.57516691 L15.8707339,5.902572 Z" id="形状" fill="#FCB334" fill-rule="nonzero"></path>
    </g>
</svg>