<?xml version="1.0" encoding="UTF-8"?>
<svg width="24px" height="24px" viewBox="0 0 24 24" version="1.1" xmlns="http://www.w3.org/2000/svg" xmlns:xlink="http://www.w3.org/1999/xlink">
    <title>ic_editor_web</title>
    <g id="ic_editor_web" stroke="none" stroke-width="1" fill="none" fill-rule="evenodd">
        <path d="M12,21.0001091 C16.9626,21.0001091 21,16.9627091 21,12.0001091 C21,7.03745455 16.9626,3 12,3 C7.0374,3 3,7.03745455 3,12.0001091 C3,16.9627091 7.0374,21.0001091 12,21.0001091 Z M6.13210909,16.4434909 C6.84523636,16.1630182 7.74310909,15.9394909 8.75230909,15.7863273 C8.88932727,16.6089273 9.07118182,17.3715273 9.29536364,18.0442364 C9.4128,18.3965455 9.53645455,18.7075091 9.6642,18.9837818 C8.24585455,18.5081455 7.01896364,17.6117455 6.13210909,16.4434909 Z M4.63636364,12.0001091 C4.63636364,10.9231091 4.86883636,9.8994 5.28605455,8.97649091 C6.17094545,9.35530909 7.28874545,9.64838182 8.54798182,9.8376 C8.48667273,10.5363818 8.45454545,11.2614 8.45454545,12.0001091 C8.45454545,12.7387636 8.48667273,13.4638364 8.54798182,14.1625636 C7.28874545,14.3518364 6.17089091,14.6449091 5.28610909,15.0237273 C4.86883636,14.1008182 4.63636364,13.0771091 4.63636364,12.0001091 Z M12,4.63636364 C12.1761818,4.63636364 12.6896727,5.08532727 13.1523273,6.47334545 C13.3424727,7.04389091 13.4988545,7.69096364 13.6195091,8.3916 C13.0935273,8.42836364 12.5511273,8.44778182 11.9997818,8.44778182 C11.4486,8.44778182 10.9063636,8.42841818 10.3804909,8.3916 C10.5011455,7.69096364 10.6575273,7.04394545 10.8477273,6.4734 C11.3103818,5.08532727 11.8238182,4.63636364 12,4.63636364 Z M11.9997818,10.0841455 C12.6230727,10.0841455 13.2340909,10.0612364 13.8259091,10.0175455 C13.8805636,10.656 13.9090909,11.3206909 13.9090909,12.0001091 C13.9090909,12.6795273 13.8805636,13.3441091 13.8259636,13.9825636 C13.2341455,13.9388727 12.6232364,13.9159636 12,13.9159636 C11.3767636,13.9159636 10.7658545,13.9388727 10.1740909,13.9825636 C10.1194364,13.3441091 10.0909091,12.6794727 10.0909091,12.0001091 C10.0909091,11.3206909 10.1194364,10.6560545 10.1740909,10.0175455 C10.7658,10.0612364 11.3766545,10.0841455 11.9997818,10.0841455 Z M19.3636364,12.0001091 C19.3636364,13.0770545 19.1311636,14.1007091 18.7139455,15.0236182 C17.8290545,14.6448 16.7112545,14.3517818 15.4520182,14.1625636 C15.5133273,13.4638364 15.5454545,12.7388182 15.5454545,12.0001091 C15.5454545,11.2613455 15.5133273,10.5363273 15.4520182,9.83754545 C16.7112545,9.64832727 17.8290545,9.3552 18.7138364,8.97632727 C19.1311636,9.89929091 19.3636364,10.9230545 19.3636364,12.0001091 Z M12,19.3637455 C11.8238182,19.3637455 11.3103818,18.9147273 10.8477818,17.5267636 C10.6575818,16.9561636 10.5012,16.3091455 10.3804909,15.6085091 C10.9064727,15.5716909 11.4487091,15.5523273 12,15.5523273 C12.5512909,15.5523273 13.0935818,15.5716909 13.6195091,15.6085091 C13.4988545,16.3091455 13.3424727,16.9562182 13.1523273,17.5267636 C12.6896727,18.9147818 12.1762364,19.3637455 12,19.3637455 Z M14.3359091,18.9837818 C14.4636,18.7075091 14.5872545,18.3965455 14.7046909,18.0442364 C14.9289273,17.3715273 15.1107818,16.6089273 15.2478,15.7863273 C16.2568909,15.9394909 17.1547636,16.1629636 17.8678909,16.4434364 C16.9810909,17.6116364 15.7542545,18.5080909 14.3359091,18.9837818 Z M17.8677818,7.55656364 C17.1547636,7.83703636 16.2568909,8.06061818 15.2477455,8.21372727 C15.1107273,7.39118182 14.9289273,6.62852727 14.7046909,5.95587273 C14.5873091,5.60356364 14.4636,5.2926 14.3358545,5.01627273 C15.7541455,5.49201818 16.9809818,6.38836364 17.8677818,7.55656364 Z M9.6642,5.01632727 C9.53645455,5.29254545 9.41285455,5.60356364 9.29536364,5.95587273 C9.07118182,6.62863636 8.88932727,7.39123636 8.75230909,8.21383636 C7.74310909,8.06067273 6.84523636,7.83714545 6.13210909,7.55672727 C7.01890909,6.38847273 8.2458,5.49196364 9.6642,5.01632727 Z" id="形状" fill="#FCB334" fill-rule="nonzero"></path>
    </g>
</svg>