<?xml version="1.0" encoding="UTF-8"?>
<svg width="24px" height="24px" viewBox="0 0 24 24" version="1.1" xmlns="http://www.w3.org/2000/svg" xmlns:xlink="http://www.w3.org/1999/xlink">
    <title>ic_state_script_on</title>
    <g id="ic_state_script_on" stroke="none" stroke-width="1" fill="none" fill-rule="evenodd">
        <path d="M13.4507772,11.1701754 C13.0777202,11.1701754 12.7979275,10.8754386 12.238342,10.8754386 C11.8419689,10.8754386 11.492228,11.0964912 11.492228,11.4894737 C11.492228,12.4719298 14.5,11.8333333 14.5,14.2894737 C14.5,15.6403509 13.4274611,16.5 12.1917098,16.5 C11.492228,16.5 10,16.3280702 10,15.4438596 C10,15.0754386 10.2331606,14.7561404 10.6062176,14.7561404 C11.0259067,14.7561404 11.5388601,15.1245614 12.1217617,15.1245614 C12.7279793,15.1245614 13.0544041,14.7807018 13.0544041,14.3140351 C13.0544041,13.1842105 10.0466321,13.8719298 10.0466321,11.6614035 C10.0466321,10.3350877 11.0958549,9.5 12.2849741,9.5 C12.7746114,9.5 14.0569948,9.69649123 14.0569948,10.4578947 C14.0569948,10.8263158 13.8238342,11.1701754 13.4507772,11.1701754 Z M13.3671875,3 C13.9869792,3 14.5776042,3.23705859 15.0151042,3.65917969 L18.3182292,6.84257812 C18.7557292,7.26445313 19,7.83398438 19,8.43164062 L19,18.75 C19,19.9910156 17.9536458,21 16.6666667,21 L7.33333333,21 C6.04453125,21 5,19.9910156 5,18.75 L5,5.25 C5,4.00722656 6.04453125,3 7.33333333,3 L13.3671875,3 Z M14.5,5.5 L14.5,7.5 L16.5,7.5 L14.5,5.5 Z M17,17.5 L17,9 L14.5,9 C13.5,9 13,8.5 13,7.5 L13,5 L8.5,5 C7,5 7,5 7,6.5 L7,17.5 C7,19 7,19 8.5,19 L15.5,19 C17,19 17,19 17,17.5 Z" id="Shape" fill="#FCB334" fill-rule="nonzero"></path>
    </g>
</svg>